<svg xmlns="http://www.w3.org/2000/svg" xmlns:xlink="http://www.w3.org/1999/xlink" viewBox="1085 425 140 137" width="140" height="137">
  <defs>
    <clipPath id="icon-clip-a">
      <path d="M 1188.007812 557.191406 L 1088.585938 521.160156 L 1121.804688 429.492188 L 1221.226562 465.527344 Z" clip-rule="nonzero"/>
    </clipPath>
    <clipPath id="icon-clip-b">
      <rect x="1110" y="491" width="2" height="3"/>
    </clipPath>
  </defs>
  <g clip-path="url(#icon-clip-a)">
    <path fill="#ff5757" fill-rule="nonzero" d="M 1191.773438 455.023438 C 1192.113281 455.148438 1192.296875 455.390625 1192.328125 455.753906 C 1192.359375 456.113281 1192.21875 456.386719 1191.90625 456.570312 C 1189.828125 457.753906 1188.308594 461.828125 1188.039062 463.660156 C 1188.21875 463.496094 1188.433594 463.402344 1188.679688 463.386719 C 1188.921875 463.371094 1189.148438 463.433594 1189.351562 463.570312 C 1190.164062 464.171875 1189.746094 465.078125 1188.148438 468.445312 C 1187.390625 470.113281 1185.816406 473.488281 1185.71875 474.730469 L 1185.824219 474.679688 C 1186.503906 474.363281 1186.996094 474.421875 1187.308594 474.84375 C 1187.824219 475.550781 1187.402344 476.003906 1185.605469 477.996094 C 1183.351562 480.449219 1178.660156 485.542969 1179.234375 488.140625 C 1179.308594 488.441406 1179.449219 488.703125 1179.660156 488.925781 C 1179.871094 489.152344 1180.121094 489.3125 1180.414062 489.402344 C 1182.058594 489.535156 1185.050781 488.964844 1187.5 488.511719 C 1191.207031 487.816406 1192.335938 487.609375 1192.734375 488.542969 C 1193.074219 489.320312 1192.296875 489.894531 1192.042969 490.085938 C 1191.957031 490.148438 1191.890625 490.203125 1191.839844 490.25 C 1192.570312 490.640625 1194.761719 490.992188 1196.128906 491.210938 C 1199.328125 491.722656 1200.878906 492.019531 1201.195312 493.109375 C 1201.265625 493.375 1201.253906 493.640625 1201.160156 493.902344 C 1201.066406 494.160156 1200.90625 494.371094 1200.679688 494.53125 C 1200.5625 494.640625 1200.46875 494.726562 1200.402344 494.800781 C 1201.425781 494.980469 1202.453125 495.082031 1203.492188 495.105469 C 1205.695312 495.242188 1207.980469 495.382812 1209.300781 496.175781 C 1209.464844 496.261719 1209.585938 496.390625 1209.667969 496.554688 C 1209.746094 496.722656 1209.769531 496.894531 1209.738281 497.078125 C 1209.707031 497.25 1209.632812 497.398438 1209.511719 497.527344 C 1209.390625 497.652344 1209.246094 497.734375 1209.074219 497.773438 C 1205.023438 498.636719 1200.332031 503.621094 1199.8125 505.121094 C 1200.894531 505.238281 1202.042969 505.511719 1202.332031 506.472656 C 1202.730469 507.8125 1201.15625 509.046875 1198.542969 511.09375 C 1195.699219 513.324219 1191.800781 516.386719 1191.644531 519.246094 C 1191.632812 519.457031 1191.554688 519.636719 1191.410156 519.789062 C 1191.265625 519.941406 1191.085938 520.027344 1190.878906 520.050781 L 1188.480469 520.308594 C 1180.550781 521.125 1174.820312 521.714844 1173.765625 524.183594 C 1172.855469 526.265625 1174.925781 530.398438 1180.46875 537.515625 C 1181.511719 538.417969 1181.261719 539.0625 1181.011719 539.363281 C 1180.226562 540.34375 1177.90625 539.398438 1177.394531 538.988281 C 1174.945312 537.363281 1169.089844 536.316406 1166.289062 536.089844 C 1166.320312 536.207031 1166.332031 536.324219 1166.328125 536.441406 C 1166.277344 537.355469 1165.238281 537.738281 1164.90625 537.839844 C 1163.234375 538.425781 1158.523438 538.90625 1156.972656 537.183594 C 1154.394531 534.308594 1150.417969 531.171875 1147.710938 531.773438 C 1146.378906 532.074219 1145.378906 533.320312 1144.734375 535.480469 C 1144.695312 535.601562 1144.632812 535.707031 1144.546875 535.800781 C 1144.347656 536.050781 1144.097656 536.230469 1143.796875 536.34375 C 1143.496094 536.453125 1143.191406 536.476562 1142.875 536.417969 C 1141.140625 536.082031 1139.328125 532.929688 1136.8125 525.882812 L 1136.703125 525.566406 C 1136.234375 524.113281 1135.960938 522.625 1135.886719 521.101562 C 1131.066406 529.015625 1129.242188 534.761719 1129.21875 534.828125 C 1129.171875 535 1129.082031 535.140625 1128.945312 535.253906 C 1128.808594 535.371094 1128.65625 535.433594 1128.476562 535.453125 C 1128.300781 535.46875 1128.136719 535.433594 1127.980469 535.347656 C 1127.828125 535.261719 1127.710938 535.136719 1127.632812 534.980469 L 1125.285156 530.183594 C 1125.171875 529.960938 1125.160156 529.730469 1125.253906 529.496094 C 1125.335938 529.265625 1127.386719 524.070312 1133.949219 515.4375 L 1131.808594 515.121094 C 1129.109375 514.703125 1125 514.128906 1119.234375 513.125 C 1119.160156 513.113281 1119.09375 513.089844 1119.027344 513.050781 C 1117.902344 512.542969 1116.949219 512.117188 1116.148438 511.765625 C 1112.816406 510.28125 1112.121094 509.972656 1112.039062 509.105469 C 1111.972656 508.394531 1112.527344 508.011719 1113.109375 507.605469 C 1114.535156 506.695312 1115.566406 505.460938 1116.210938 503.898438 C 1116.742188 500.535156 1112.097656 494.785156 1110.410156 493.019531 C 1110.269531 492.867188 1110.191406 492.691406 1110.179688 492.484375 C 1110.164062 492.28125 1110.21875 492.09375 1110.339844 491.925781 C 1110.21875 491.242188 1109.839844 489.847656 1109.523438 488.683594 C 1107.988281 483.035156 1107.667969 481.171875 1108.691406 480.472656 C 1108.902344 480.324219 1109.136719 480.257812 1109.394531 480.269531 C 1109.132812 479.613281 1108.773438 478.875 1108.441406 478.234375 C 1107.492188 476.199219 1106.382812 473.90625 1106.117188 472.320312 C 1106.089844 472.144531 1106.113281 471.976562 1106.191406 471.816406 C 1106.265625 471.65625 1106.378906 471.53125 1106.535156 471.441406 C 1106.6875 471.351562 1106.851562 471.316406 1107.03125 471.328125 C 1107.207031 471.34375 1107.363281 471.40625 1107.503906 471.515625 C 1112.136719 475.3125 1120.578125 480.199219 1122.773438 479.140625 C 1122.894531 479.082031 1123.183594 478.9375 1123.171875 478.15625 C 1123.042969 469.945312 1133.980469 451.910156 1135.570312 451.191406 C 1135.925781 451.035156 1136.246094 451.085938 1136.539062 451.339844 C 1136.652344 451.445312 1136.734375 451.574219 1136.78125 451.726562 C 1139.199219 449.71875 1144.992188 442.828125 1145.417969 439.925781 C 1145.445312 439.726562 1145.53125 439.5625 1145.675781 439.425781 C 1145.820312 439.289062 1145.988281 439.210938 1146.1875 439.191406 C 1146.382812 439.175781 1146.566406 439.21875 1146.730469 439.328125 C 1146.898438 439.4375 1147.011719 439.585938 1147.074219 439.773438 C 1147.460938 440.902344 1147.902344 442.390625 1148.410156 444.113281 C 1149.550781 447.988281 1152.226562 457.054688 1153.800781 457.222656 C 1153.835938 457.238281 1154.070312 457.117188 1154.386719 456.535156 C 1154.546875 456.25 1155.019531 455.382812 1155.84375 455.632812 C 1156.859375 455.9375 1156.75 457.035156 1156.40625 461.152344 C 1156.203125 463.628906 1155.953125 466.691406 1156.191406 468.300781 C 1156.328125 468.636719 1156.570312 468.835938 1156.925781 468.90625 C 1158.789062 469.203125 1162.667969 465.210938 1164.75 463.070312 C 1166.90625 460.851562 1167.558594 460.183594 1168.382812 460.644531 C 1168.703125 460.820312 1169.039062 461.21875 1168.816406 462.089844 C 1168.792969 462.144531 1168.773438 462.195312 1168.757812 462.25 C 1169.972656 462.3125 1174.269531 459.921875 1176.148438 458.871094 C 1179.453125 457.03125 1180.144531 456.644531 1180.769531 457.394531 C 1180.941406 457.59375 1181.011719 457.824219 1180.980469 458.085938 C 1181.957031 457.816406 1183.378906 457.332031 1184.515625 456.945312 C 1186.867188 456.144531 1189.539062 455.242188 1191.332031 454.980469 C 1191.480469 454.953125 1191.628906 454.96875 1191.773438 455.023438 Z"/>
  </g>
  <g clip-path="url(#icon-clip-b)">
    <g clip-path="url(#icon-clip-a)">
      <path fill="#ff5757" fill-rule="nonzero" d="M 1111.164062 491.511719 C 1111.234375 491.527344 1111.296875 491.550781 1111.359375 491.582031 C 1111.492188 491.675781 1111.605469 491.792969 1111.699219 491.925781 C 1111.824219 492.089844 1111.882812 492.277344 1111.871094 492.488281 C 1111.859375 492.695312 1111.78125 492.878906 1111.636719 493.027344 C 1111.5 493.183594 1111.328125 493.277344 1111.125 493.308594 C 1110.921875 493.339844 1110.730469 493.304688 1110.554688 493.199219 C 1110.429688 493.121094 1110.320312 493.023438 1110.226562 492.90625 C 1110.105469 492.769531 1110.035156 492.609375 1110.015625 492.429688 C 1109.992188 492.28125 1110.011719 492.136719 1110.066406 491.992188 C 1110.121094 491.851562 1110.207031 491.734375 1110.328125 491.640625 C 1110.445312 491.546875 1110.578125 491.488281 1110.730469 491.464844 C 1110.878906 491.441406 1111.023438 491.457031 1111.164062 491.511719 Z"/>
    </g>
  </g>
</svg>
