<svg xmlns="http://www.w3.org/2000/svg" viewBox="0 0 3 2">
  <rect fill="#00008B" width="3" height="2"/>
  <g fill="#fff">
    <polygon points="0,0 0.5,0.35 0.2,0.35 0.5,0.55 0.4,0.85 0.25,0.65 0.1,0.85 0,0.55 0.3,0.35"/>
    <polygon points="2.3,0.5 2.35,0.6 2.45,0.6 2.37,0.67 2.4,0.77 2.3,0.7 2.2,0.77 2.23,0.67 2.15,0.6 2.25,0.6"/>
    <polygon points="2.6,0.2 2.65,0.3 2.75,0.3 2.67,0.37 2.7,0.47 2.6,0.4 2.5,0.47 2.53,0.37 2.45,0.3 2.55,0.3"/>
    <polygon points="2.6,0.9 2.65,1 2.75,1 2.67,1.07 2.7,1.17 2.6,1.1 2.5,1.17 2.53,1.07 2.45,1 2.55,1"/>
    <polygon points="2.15,1.2 2.2,1.3 2.3,1.3 2.22,1.37 2.25,1.47 2.15,1.4 2.05,1.47 2.08,1.37 2,1.3 2.1,1.3"/>
    <polygon points="1.2,1.2 1.25,1.28 1.32,1.28 1.27,1.33 1.29,1.4 1.2,1.35 1.11,1.4 1.13,1.33 1.08,1.28 1.15,1.28"/>
  </g>
</svg>