<svg xmlns="http://www.w3.org/2000/svg" viewBox="0 0 3 2">
  <rect fill="#00247D" width="3" height="2"/>
  <g fill="#fff">
    <polygon points="0,0 0.5,0.35 0.2,0.35 0.5,0.55 0.4,0.85 0.25,0.65 0.1,0.85 0,0.55 0.3,0.35"/>
  </g>
  <g fill="#CC142B">
    <polygon points="2.35,0.45 2.4,0.55 2.5,0.55 2.42,0.62 2.45,0.72 2.35,0.65 2.25,0.72 2.28,0.62 2.2,0.55 2.3,0.55"/>
    <polygon points="2.6,0.2 2.65,0.3 2.75,0.3 2.67,0.37 2.7,0.47 2.6,0.4 2.5,0.47 2.53,0.37 2.45,0.3 2.55,0.3"/>
    <polygon points="2.65,0.85 2.7,0.95 2.8,0.95 2.72,1.02 2.75,1.12 2.65,1.05 2.55,1.12 2.58,1.02 2.5,0.95 2.6,0.95"/>
    <polygon points="2.2,1.1 2.25,1.2 2.35,1.2 2.27,1.27 2.3,1.37 2.2,1.3 2.1,1.37 2.13,1.27 2.05,1.2 2.15,1.2"/>
  </g>
</svg>