<svg xmlns="http://www.w3.org/2000/svg" xmlns:xlink="http://www.w3.org/1999/xlink" width="1920" zoomAndPan="magnify" viewBox="200 220 1050 350" height="1080" preserveAspectRatio="xMidYMid meet" version="1.0"><defs><g/><clipPath id="c818976c25"><rect x="0" width="158" y="0" height="51"/></clipPath><clipPath id="928079b90f"><rect x="0" width="108" y="0" height="50"/></clipPath><clipPath id="63e7153024"><path d="M 1106 439 L 1210 439 L 1210 540 L 1106 540 Z M 1106 439 " clip-rule="nonzero"/></clipPath><clipPath id="34298b0860"><path d="M 1188.007812 557.191406 L 1088.585938 521.160156 L 1121.804688 429.492188 L 1221.226562 465.527344 Z M 1188.007812 557.191406 " clip-rule="nonzero"/></clipPath><clipPath id="465a09f28f"><path d="M 1188.007812 557.191406 L 1088.585938 521.160156 L 1121.804688 429.492188 L 1221.226562 465.527344 Z M 1188.007812 557.191406 " clip-rule="nonzero"/></clipPath><clipPath id="333ab6ad9e"><path d="M 1110 491 L 1112 491 L 1112 494 L 1110 494 Z M 1110 491 " clip-rule="nonzero"/></clipPath><clipPath id="3741b1f08b"><path d="M 1188.007812 557.191406 L 1088.585938 521.160156 L 1121.804688 429.492188 L 1221.226562 465.527344 Z M 1188.007812 557.191406 " clip-rule="nonzero"/></clipPath><clipPath id="31cfee0a4f"><path d="M 1188.007812 557.191406 L 1088.585938 521.160156 L 1121.804688 429.492188 L 1221.226562 465.527344 Z M 1188.007812 557.191406 " clip-rule="nonzero"/></clipPath><clipPath id="1d0661c349"><rect x="0" width="994" y="0" height="229"/></clipPath></defs><g transform="matrix(1, 0, 0, 1, 932, 471)"><g clip-path="url(#c818976c25)"><g fill="#222222" fill-opacity="1"><g transform="translate(2.578061, 38.398057)"><g><path d="M 8.28125 0 L 3.109375 0 L 3.109375 -24.734375 L 17.296875 -24.734375 L 17.296875 -20.4375 L 8.28125 -20.4375 L 8.28125 -14.0625 L 16.671875 -14.0625 L 16.671875 -9.78125 L 8.28125 -9.78125 Z M 8.28125 0 "/></g></g></g><g fill="#222222" fill-opacity="1"><g transform="translate(19.902192, 38.398057)"><g><path d="M 23.25 -24.734375 L 23.25 -8.734375 C 23.25 -7.023438 22.875 -5.484375 22.125 -4.109375 C 21.375 -2.742188 20.238281 -1.660156 18.71875 -0.859375 C 17.207031 -0.0546875 15.300781 0.34375 13 0.34375 C 9.726562 0.34375 7.234375 -0.488281 5.515625 -2.15625 C 3.796875 -3.832031 2.9375 -6.046875 2.9375 -8.796875 L 2.9375 -24.734375 L 8.171875 -24.734375 L 8.171875 -9.59375 C 8.171875 -7.550781 8.585938 -6.117188 9.421875 -5.296875 C 10.253906 -4.472656 11.488281 -4.0625 13.125 -4.0625 C 14.28125 -4.0625 15.210938 -4.257812 15.921875 -4.65625 C 16.640625 -5.050781 17.164062 -5.660156 17.5 -6.484375 C 17.84375 -7.304688 18.015625 -8.351562 18.015625 -9.625 L 18.015625 -24.734375 Z M 23.25 -24.734375 "/></g></g></g><g fill="#222222" fill-opacity="1"><g transform="translate(44.402059, 38.398057)"><g><path d="M 25.0625 0 L 18.390625 0 L 7.625 -18.71875 L 7.484375 -18.71875 C 7.523438 -17.9375 7.5625 -17.148438 7.59375 -16.359375 C 7.632812 -15.566406 7.671875 -14.78125 7.703125 -14 C 7.734375 -13.21875 7.765625 -12.429688 7.796875 -11.640625 L 7.796875 0 L 3.109375 0 L 3.109375 -24.734375 L 9.734375 -24.734375 L 20.46875 -6.203125 L 20.59375 -6.203125 C 20.570312 -6.972656 20.539062 -7.734375 20.5 -8.484375 C 20.46875 -9.242188 20.4375 -10 20.40625 -10.75 C 20.382812 -11.507812 20.363281 -12.269531 20.34375 -13.03125 L 20.34375 -24.734375 L 25.0625 -24.734375 Z M 25.0625 0 "/></g></g></g><g fill="#222222" fill-opacity="1"><g transform="translate(70.882023, 38.398057)"><g><path d="M 23.640625 -12.609375 C 23.640625 -9.816406 23.101562 -7.488281 22.03125 -5.625 C 20.96875 -3.757812 19.425781 -2.351562 17.40625 -1.40625 C 15.394531 -0.46875 12.96875 0 10.125 0 L 3.109375 0 L 3.109375 -24.734375 L 10.875 -24.734375 C 13.46875 -24.734375 15.71875 -24.273438 17.625 -23.359375 C 19.539062 -22.441406 21.019531 -21.082031 22.0625 -19.28125 C 23.113281 -17.476562 23.640625 -15.253906 23.640625 -12.609375 Z M 18.1875 -12.46875 C 18.1875 -14.300781 17.914062 -15.804688 17.375 -16.984375 C 16.84375 -18.160156 16.054688 -19.03125 15.015625 -19.59375 C 13.972656 -20.15625 12.6875 -20.4375 11.15625 -20.4375 L 8.359375 -20.4375 L 8.359375 -4.328125 L 10.609375 -4.328125 C 13.171875 -4.328125 15.070312 -5.007812 16.3125 -6.375 C 17.5625 -7.738281 18.1875 -9.769531 18.1875 -12.46875 Z M 18.1875 -12.46875 "/></g></g></g><g fill="#222222" fill-opacity="1"><g transform="translate(94.840325, 38.398057)"><g><path d="M 3.109375 0 L 3.109375 -24.734375 L 8.359375 -24.734375 L 8.359375 0 Z M 3.109375 0 "/></g></g></g><g fill="#222222" fill-opacity="1"><g transform="translate(104.616393, 38.398057)"><g><path d="M 25.0625 0 L 18.390625 0 L 7.625 -18.71875 L 7.484375 -18.71875 C 7.523438 -17.9375 7.5625 -17.148438 7.59375 -16.359375 C 7.632812 -15.566406 7.671875 -14.78125 7.703125 -14 C 7.734375 -13.21875 7.765625 -12.429688 7.796875 -11.640625 L 7.796875 0 L 3.109375 0 L 3.109375 -24.734375 L 9.734375 -24.734375 L 20.46875 -6.203125 L 20.59375 -6.203125 C 20.570312 -6.972656 20.539062 -7.734375 20.5 -8.484375 C 20.46875 -9.242188 20.4375 -10 20.40625 -10.75 C 20.382812 -11.507812 20.363281 -12.269531 20.34375 -13.03125 L 20.34375 -24.734375 L 25.0625 -24.734375 Z M 25.0625 0 "/></g></g></g><g fill="#222222" fill-opacity="1"><g transform="translate(131.096357, 38.398057)"><g><path d="M 12.5 -13.890625 L 22.3125 -13.890625 L 22.3125 -1.0625 C 21.019531 -0.632812 19.671875 -0.289062 18.265625 -0.03125 C 16.867188 0.21875 15.285156 0.34375 13.515625 0.34375 C 11.054688 0.34375 8.96875 -0.140625 7.25 -1.109375 C 5.539062 -2.085938 4.238281 -3.523438 3.34375 -5.421875 C 2.457031 -7.316406 2.015625 -9.644531 2.015625 -12.40625 C 2.015625 -15 2.515625 -17.242188 3.515625 -19.140625 C 4.515625 -21.035156 5.972656 -22.5 7.890625 -23.53125 C 9.816406 -24.570312 12.164062 -25.09375 14.9375 -25.09375 C 16.25 -25.09375 17.539062 -24.953125 18.8125 -24.671875 C 20.09375 -24.390625 21.25 -24.023438 22.28125 -23.578125 L 20.546875 -19.375 C 19.785156 -19.757812 18.921875 -20.082031 17.953125 -20.34375 C 16.984375 -20.601562 15.96875 -20.734375 14.90625 -20.734375 C 13.382812 -20.734375 12.0625 -20.378906 10.9375 -19.671875 C 9.8125 -18.972656 8.941406 -17.992188 8.328125 -16.734375 C 7.710938 -15.484375 7.40625 -14.003906 7.40625 -12.296875 C 7.40625 -10.679688 7.625 -9.25 8.0625 -8 C 8.507812 -6.757812 9.207031 -5.785156 10.15625 -5.078125 C 11.101562 -4.378906 12.335938 -4.03125 13.859375 -4.03125 C 14.597656 -4.03125 15.222656 -4.066406 15.734375 -4.140625 C 16.253906 -4.210938 16.738281 -4.285156 17.1875 -4.359375 L 17.1875 -9.53125 L 12.5 -9.53125 Z M 12.5 -13.890625 "/></g></g></g></g></g><g transform="matrix(1, 0, 0, 1, 984, 501)"><g clip-path="url(#928079b90f)"><g fill="#222222" fill-opacity="1"><g transform="translate(3.155508, 37.850782)"><g><path d="M 12.5 -13.890625 L 22.3125 -13.890625 L 22.3125 -1.0625 C 21.019531 -0.632812 19.671875 -0.289062 18.265625 -0.03125 C 16.867188 0.21875 15.285156 0.34375 13.515625 0.34375 C 11.054688 0.34375 8.96875 -0.140625 7.25 -1.109375 C 5.539062 -2.085938 4.238281 -3.523438 3.34375 -5.421875 C 2.457031 -7.316406 2.015625 -9.644531 2.015625 -12.40625 C 2.015625 -15 2.515625 -17.242188 3.515625 -19.140625 C 4.515625 -21.035156 5.972656 -22.5 7.890625 -23.53125 C 9.816406 -24.570312 12.164062 -25.09375 14.9375 -25.09375 C 16.25 -25.09375 17.539062 -24.953125 18.8125 -24.671875 C 20.09375 -24.390625 21.25 -24.023438 22.28125 -23.578125 L 20.546875 -19.375 C 19.785156 -19.757812 18.921875 -20.082031 17.953125 -20.34375 C 16.984375 -20.601562 15.96875 -20.734375 14.90625 -20.734375 C 13.382812 -20.734375 12.0625 -20.378906 10.9375 -19.671875 C 9.8125 -18.972656 8.941406 -17.992188 8.328125 -16.734375 C 7.710938 -15.484375 7.40625 -14.003906 7.40625 -12.296875 C 7.40625 -10.679688 7.625 -9.25 8.0625 -8 C 8.507812 -6.757812 9.207031 -5.785156 10.15625 -5.078125 C 11.101562 -4.378906 12.335938 -4.03125 13.859375 -4.03125 C 14.597656 -4.03125 15.222656 -4.066406 15.734375 -4.140625 C 16.253906 -4.210938 16.738281 -4.285156 17.1875 -4.359375 L 17.1875 -9.53125 L 12.5 -9.53125 Z M 12.5 -13.890625 "/></g></g></g><g fill="#222222" fill-opacity="1"><g transform="translate(26.555375, 37.850782)"><g><path d="M 23.25 -24.734375 L 23.25 -8.734375 C 23.25 -7.023438 22.875 -5.484375 22.125 -4.109375 C 21.375 -2.742188 20.238281 -1.660156 18.71875 -0.859375 C 17.207031 -0.0546875 15.300781 0.34375 13 0.34375 C 9.726562 0.34375 7.234375 -0.488281 5.515625 -2.15625 C 3.796875 -3.832031 2.9375 -6.046875 2.9375 -8.796875 L 2.9375 -24.734375 L 8.171875 -24.734375 L 8.171875 -9.59375 C 8.171875 -7.550781 8.585938 -6.117188 9.421875 -5.296875 C 10.253906 -4.472656 11.488281 -4.0625 13.125 -4.0625 C 14.28125 -4.0625 15.210938 -4.257812 15.921875 -4.65625 C 16.640625 -5.050781 17.164062 -5.660156 17.5 -6.484375 C 17.84375 -7.304688 18.015625 -8.351562 18.015625 -9.625 L 18.015625 -24.734375 Z M 23.25 -24.734375 "/></g></g></g><g fill="#222222" fill-opacity="1"><g transform="translate(51.055298, 37.850782)"><g><path d="M 3.109375 0 L 3.109375 -24.734375 L 8.359375 -24.734375 L 8.359375 0 Z M 3.109375 0 "/></g></g></g><g fill="#222222" fill-opacity="1"><g transform="translate(60.831389, 37.850782)"><g><path d="M 23.640625 -12.609375 C 23.640625 -9.816406 23.101562 -7.488281 22.03125 -5.625 C 20.96875 -3.757812 19.425781 -2.351562 17.40625 -1.40625 C 15.394531 -0.46875 12.96875 0 10.125 0 L 3.109375 0 L 3.109375 -24.734375 L 10.875 -24.734375 C 13.46875 -24.734375 15.71875 -24.273438 17.625 -23.359375 C 19.539062 -22.441406 21.019531 -21.082031 22.0625 -19.28125 C 23.113281 -17.476562 23.640625 -15.253906 23.640625 -12.609375 Z M 18.1875 -12.46875 C 18.1875 -14.300781 17.914062 -15.804688 17.375 -16.984375 C 16.84375 -18.160156 16.054688 -19.03125 15.015625 -19.59375 C 13.972656 -20.15625 12.6875 -20.4375 11.15625 -20.4375 L 8.359375 -20.4375 L 8.359375 -4.328125 L 10.609375 -4.328125 C 13.171875 -4.328125 15.070312 -5.007812 16.3125 -6.375 C 17.5625 -7.738281 18.1875 -9.769531 18.1875 -12.46875 Z M 18.1875 -12.46875 "/></g></g></g><g fill="#222222" fill-opacity="1"><g transform="translate(84.789746, 37.850782)"><g><path d="M 17.359375 0 L 3.109375 0 L 3.109375 -24.734375 L 17.359375 -24.734375 L 17.359375 -20.4375 L 8.359375 -20.4375 L 8.359375 -15.015625 L 16.734375 -15.015625 L 16.734375 -10.71875 L 8.359375 -10.71875 L 8.359375 -4.328125 L 17.359375 -4.328125 Z M 17.359375 0 "/></g></g></g></g></g><path stroke-linecap="butt" transform="matrix(0.749989, 0.0040603, -0.0040603, 0.749989, 253.926615, 508.007226)" fill="none" stroke-linejoin="miter" d="M 0.000536315 8.000896 L 856.664164 7.998566 " stroke="#ff5757" stroke-width="16" stroke-opacity="1" stroke-miterlimit="4"/><g clip-path="url(#63e7153024)"><g clip-path="url(#34298b0860)"><g clip-path="url(#465a09f28f)"><path fill="#ff5757" d="M 1191.773438 455.023438 C 1192.113281 455.148438 1192.296875 455.390625 1192.328125 455.753906 C 1192.359375 456.113281 1192.21875 456.386719 1191.90625 456.570312 C 1189.828125 457.753906 1188.308594 461.828125 1188.039062 463.660156 C 1188.21875 463.496094 1188.433594 463.402344 1188.679688 463.386719 C 1188.921875 463.371094 1189.148438 463.433594 1189.351562 463.570312 C 1190.164062 464.171875 1189.746094 465.078125 1188.148438 468.445312 C 1187.390625 470.113281 1185.816406 473.488281 1185.71875 474.730469 L 1185.824219 474.679688 C 1186.503906 474.363281 1186.996094 474.421875 1187.308594 474.84375 C 1187.824219 475.550781 1187.402344 476.003906 1185.605469 477.996094 C 1183.351562 480.449219 1178.660156 485.542969 1179.234375 488.140625 C 1179.308594 488.441406 1179.449219 488.703125 1179.660156 488.925781 C 1179.871094 489.152344 1180.121094 489.3125 1180.414062 489.402344 C 1182.058594 489.535156 1185.050781 488.964844 1187.5 488.511719 C 1191.207031 487.816406 1192.335938 487.609375 1192.734375 488.542969 C 1193.074219 489.320312 1192.296875 489.894531 1192.042969 490.085938 C 1191.957031 490.148438 1191.890625 490.203125 1191.839844 490.25 C 1192.570312 490.640625 1194.761719 490.992188 1196.128906 491.210938 C 1199.328125 491.722656 1200.878906 492.019531 1201.195312 493.109375 C 1201.265625 493.375 1201.253906 493.640625 1201.160156 493.902344 C 1201.066406 494.160156 1200.90625 494.371094 1200.679688 494.53125 C 1200.5625 494.640625 1200.46875 494.726562 1200.402344 494.800781 C 1201.425781 494.980469 1202.453125 495.082031 1203.492188 495.105469 C 1205.695312 495.242188 1207.980469 495.382812 1209.300781 496.175781 C 1209.464844 496.261719 1209.585938 496.390625 1209.667969 496.554688 C 1209.746094 496.722656 1209.769531 496.894531 1209.738281 497.078125 C 1209.707031 497.25 1209.632812 497.398438 1209.511719 497.527344 C 1209.390625 497.652344 1209.246094 497.734375 1209.074219 497.773438 C 1205.023438 498.636719 1200.332031 503.621094 1199.8125 505.121094 C 1200.894531 505.238281 1202.042969 505.511719 1202.332031 506.472656 C 1202.730469 507.8125 1201.15625 509.046875 1198.542969 511.09375 C 1195.699219 513.324219 1191.800781 516.386719 1191.644531 519.246094 C 1191.632812 519.457031 1191.554688 519.636719 1191.410156 519.789062 C 1191.265625 519.941406 1191.085938 520.027344 1190.878906 520.050781 L 1188.480469 520.308594 C 1180.550781 521.125 1174.820312 521.714844 1173.765625 524.183594 C 1172.855469 526.265625 1174.925781 530.398438 1180.46875 537.515625 C 1181.511719 538.417969 1181.261719 539.0625 1181.011719 539.363281 C 1180.226562 540.34375 1177.90625 539.398438 1177.394531 538.988281 C 1174.945312 537.363281 1169.089844 536.316406 1166.289062 536.089844 C 1166.320312 536.207031 1166.332031 536.324219 1166.328125 536.441406 C 1166.277344 537.355469 1165.238281 537.738281 1164.90625 537.839844 C 1163.234375 538.425781 1158.523438 538.90625 1156.972656 537.183594 C 1154.394531 534.308594 1150.417969 531.171875 1147.710938 531.773438 C 1146.378906 532.074219 1145.378906 533.320312 1144.734375 535.480469 C 1144.695312 535.601562 1144.632812 535.707031 1144.546875 535.800781 C 1144.347656 536.050781 1144.097656 536.230469 1143.796875 536.34375 C 1143.496094 536.453125 1143.191406 536.476562 1142.875 536.417969 C 1141.140625 536.082031 1139.328125 532.929688 1136.8125 525.882812 L 1136.703125 525.566406 C 1136.234375 524.113281 1135.960938 522.625 1135.886719 521.101562 C 1131.066406 529.015625 1129.242188 534.761719 1129.21875 534.828125 C 1129.171875 535 1129.082031 535.140625 1128.945312 535.253906 C 1128.808594 535.371094 1128.65625 535.433594 1128.476562 535.453125 C 1128.300781 535.46875 1128.136719 535.433594 1127.980469 535.347656 C 1127.828125 535.261719 1127.710938 535.136719 1127.632812 534.980469 L 1125.285156 530.183594 C 1125.171875 529.960938 1125.160156 529.730469 1125.253906 529.496094 C 1125.335938 529.265625 1127.386719 524.070312 1133.949219 515.4375 L 1131.808594 515.121094 C 1129.109375 514.703125 1125 514.128906 1119.234375 513.125 C 1119.160156 513.113281 1119.09375 513.089844 1119.027344 513.050781 C 1117.902344 512.542969 1116.949219 512.117188 1116.148438 511.765625 C 1112.816406 510.28125 1112.121094 509.972656 1112.039062 509.105469 C 1111.972656 508.394531 1112.527344 508.011719 1113.109375 507.605469 C 1114.535156 506.695312 1115.566406 505.460938 1116.210938 503.898438 C 1116.742188 500.535156 1112.097656 494.785156 1110.410156 493.019531 C 1110.269531 492.867188 1110.191406 492.691406 1110.179688 492.484375 C 1110.164062 492.28125 1110.21875 492.09375 1110.339844 491.925781 C 1110.21875 491.242188 1109.839844 489.847656 1109.523438 488.683594 C 1107.988281 483.035156 1107.667969 481.171875 1108.691406 480.472656 C 1108.902344 480.324219 1109.136719 480.257812 1109.394531 480.269531 C 1109.132812 479.613281 1108.773438 478.875 1108.441406 478.234375 C 1107.492188 476.199219 1106.382812 473.90625 1106.117188 472.320312 C 1106.089844 472.144531 1106.113281 471.976562 1106.191406 471.816406 C 1106.265625 471.65625 1106.378906 471.53125 1106.535156 471.441406 C 1106.6875 471.351562 1106.851562 471.316406 1107.03125 471.328125 C 1107.207031 471.34375 1107.363281 471.40625 1107.503906 471.515625 C 1112.136719 475.3125 1120.578125 480.199219 1122.773438 479.140625 C 1122.894531 479.082031 1123.183594 478.9375 1123.171875 478.15625 C 1123.042969 469.945312 1133.980469 451.910156 1135.570312 451.191406 C 1135.925781 451.035156 1136.246094 451.085938 1136.539062 451.339844 C 1136.652344 451.445312 1136.734375 451.574219 1136.78125 451.726562 C 1139.199219 449.71875 1144.992188 442.828125 1145.417969 439.925781 C 1145.445312 439.726562 1145.53125 439.5625 1145.675781 439.425781 C 1145.820312 439.289062 1145.988281 439.210938 1146.1875 439.191406 C 1146.382812 439.175781 1146.566406 439.21875 1146.730469 439.328125 C 1146.898438 439.4375 1147.011719 439.585938 1147.074219 439.773438 C 1147.460938 440.902344 1147.902344 442.390625 1148.410156 444.113281 C 1149.550781 447.988281 1152.226562 457.054688 1153.800781 457.222656 C 1153.835938 457.238281 1154.070312 457.117188 1154.386719 456.535156 C 1154.546875 456.25 1155.019531 455.382812 1155.84375 455.632812 C 1156.859375 455.9375 1156.75 457.035156 1156.40625 461.152344 C 1156.203125 463.628906 1155.953125 466.691406 1156.191406 468.300781 C 1156.328125 468.636719 1156.570312 468.835938 1156.925781 468.90625 C 1158.789062 469.203125 1162.667969 465.210938 1164.75 463.070312 C 1166.90625 460.851562 1167.558594 460.183594 1168.382812 460.644531 C 1168.703125 460.820312 1169.039062 461.21875 1168.816406 462.089844 C 1168.792969 462.144531 1168.773438 462.195312 1168.757812 462.25 C 1169.972656 462.3125 1174.269531 459.921875 1176.148438 458.871094 C 1179.453125 457.03125 1180.144531 456.644531 1180.769531 457.394531 C 1180.941406 457.59375 1181.011719 457.824219 1180.980469 458.085938 C 1181.957031 457.816406 1183.378906 457.332031 1184.515625 456.945312 C 1186.867188 456.144531 1189.539062 455.242188 1191.332031 454.980469 C 1191.480469 454.953125 1191.628906 454.96875 1191.773438 455.023438 Z M 1187.15625 465.796875 L 1187.121094 465.785156 C 1186.859375 465.664062 1186.65625 465.476562 1186.507812 465.230469 C 1186.359375 464.984375 1186.292969 464.714844 1186.304688 464.429688 C 1186.199219 462.90625 1187.195312 459.679688 1188.777344 457.355469 C 1187.589844 457.714844 1186.300781 458.148438 1185.089844 458.5625 C 1180.707031 460.054688 1179.53125 460.40625 1178.925781 459.527344 C 1178.890625 459.476562 1178.859375 459.421875 1178.832031 459.363281 C 1178.261719 459.664062 1177.59375 460.042969 1177.007812 460.359375 C 1171.5625 463.394531 1168.914062 464.589844 1167.636719 463.609375 C 1167.433594 463.453125 1167.28125 463.257812 1167.183594 463.019531 C 1166.804688 463.402344 1166.363281 463.851562 1165.96875 464.273438 C 1162.503906 467.839844 1159.179688 471.007812 1156.652344 470.605469 C 1156.183594 470.523438 1155.765625 470.335938 1155.394531 470.035156 C 1155.027344 469.738281 1154.75 469.367188 1154.574219 468.925781 C 1154.539062 468.851562 1154.511719 468.777344 1154.5 468.695312 C 1154.195312 466.894531 1154.449219 463.765625 1154.679688 460.984375 C 1154.742188 460.195312 1154.8125 459.308594 1154.863281 458.554688 C 1154.488281 458.832031 1154.070312 458.949219 1153.609375 458.90625 C 1151.101562 458.636719 1149.1875 452.796875 1146.757812 444.589844 C 1146.558594 443.902344 1146.367188 443.253906 1146.183594 442.652344 C 1143.941406 447 1138.394531 453.261719 1136.480469 453.875 C 1136.152344 454.003906 1135.828125 453.988281 1135.511719 453.828125 C 1132.640625 457.957031 1124.785156 471.355469 1124.882812 478.125 C 1124.882812 479.667969 1124.144531 480.371094 1123.511719 480.675781 C 1120.398438 482.179688 1112.644531 477.335938 1108.609375 474.476562 C 1109.023438 475.464844 1109.554688 476.542969 1109.980469 477.480469 C 1111.40625 480.480469 1111.9375 481.605469 1111.128906 482.28125 C 1110.929688 482.425781 1110.707031 482.503906 1110.460938 482.507812 C 1110.214844 482.515625 1109.988281 482.449219 1109.785156 482.308594 C 1110.109375 484.316406 1110.5625 486.296875 1111.144531 488.246094 C 1111.75 490.488281 1112.066406 491.652344 1112.058594 492.332031 C 1113.597656 494.066406 1118.628906 500.128906 1117.855469 504.316406 C 1117.839844 504.375 1117.820312 504.429688 1117.796875 504.484375 C 1117.042969 506.367188 1115.824219 507.863281 1114.136719 508.980469 C 1114.71875 509.273438 1115.691406 509.714844 1116.832031 510.214844 C 1117.609375 510.566406 1118.53125 510.972656 1119.621094 511.46875 C 1125.3125 512.457031 1129.359375 513.042969 1132.046875 513.4375 C 1133.605469 513.664062 1134.761719 513.859375 1135.640625 513.988281 C 1135.789062 514.015625 1135.917969 514.074219 1136.035156 514.171875 C 1136.152344 514.265625 1136.234375 514.382812 1136.289062 514.523438 C 1136.34375 514.664062 1136.359375 514.808594 1136.335938 514.957031 C 1136.3125 515.105469 1136.257812 515.238281 1136.164062 515.355469 C 1130.066406 523.183594 1127.566406 528.445312 1126.988281 529.789062 L 1128.289062 532.417969 C 1130.511719 526.886719 1133.304688 521.660156 1136.664062 516.738281 C 1136.785156 516.558594 1136.953125 516.445312 1137.160156 516.390625 C 1137.371094 516.335938 1137.574219 516.359375 1137.765625 516.457031 C 1137.960938 516.554688 1138.09375 516.707031 1138.171875 516.910156 C 1138.25 517.109375 1138.253906 517.3125 1138.175781 517.519531 C 1137.832031 518.46875 1136.992188 520.675781 1138.332031 525.050781 L 1138.433594 525.335938 C 1141.441406 533.808594 1142.828125 534.675781 1143.164062 534.757812 C 1144.007812 532.117188 1145.410156 530.558594 1147.324219 530.132812 C 1151.621094 529.164062 1156.769531 534.425781 1158.242188 536.066406 C 1158.972656 536.894531 1162.480469 536.808594 1164.042969 536.363281 C 1163.730469 536.160156 1163.5625 535.867188 1163.539062 535.492188 C 1163.527344 535.085938 1163.703125 534.789062 1164.0625 534.601562 C 1165.480469 533.796875 1174.921875 535.335938 1178.367188 537.59375 C 1172.75 530.238281 1171.007812 526.246094 1172.195312 523.523438 C 1173.648438 520.105469 1179.160156 519.5625 1188.304688 518.617188 L 1190.011719 518.398438 C 1190.660156 515.058594 1194.429688 512.109375 1197.476562 509.726562 C 1198.648438 508.8125 1200.199219 507.59375 1200.585938 506.992188 C 1200.210938 506.875 1199.824219 506.808594 1199.429688 506.785156 C 1199.25 506.785156 1199.078125 506.75 1198.910156 506.683594 C 1198.746094 506.617188 1198.597656 506.519531 1198.46875 506.398438 C 1198.339844 506.273438 1198.238281 506.128906 1198.164062 505.96875 C 1198.089844 505.804688 1198.046875 505.632812 1198.039062 505.453125 C 1197.914062 503.425781 1202.09375 499.074219 1206.121094 497.035156 C 1205.234375 496.921875 1204.257812 496.863281 1203.386719 496.808594 C 1200.703125 496.644531 1198.933594 496.53125 1198.527344 495.332031 C 1198.269531 494.589844 1198.753906 493.925781 1199.148438 493.519531 C 1198.039062 493.238281 1196.921875 493.019531 1195.789062 492.867188 C 1192.292969 492.3125 1190.296875 491.929688 1189.972656 490.589844 C 1189.898438 490.304688 1189.917969 490.023438 1190.03125 489.75 C 1189.332031 489.867188 1188.496094 490.023438 1187.753906 490.164062 C 1185.011719 490.679688 1181.910156 491.269531 1180.09375 491.085938 C 1180.015625 491.066406 1179.9375 491.039062 1179.863281 491 C 1179.289062 490.808594 1178.792969 490.484375 1178.382812 490.035156 C 1177.96875 489.585938 1177.695312 489.066406 1177.550781 488.472656 C 1176.789062 485 1181.511719 479.867188 1184.335938 476.804688 L 1184.753906 476.347656 C 1184.644531 476.285156 1184.542969 476.207031 1184.453125 476.121094 C 1183.394531 475.058594 1184.363281 472.621094 1186.660156 467.695312 C 1186.941406 467.09375 1187.25 466.425781 1187.507812 465.839844 C 1187.386719 465.84375 1187.273438 465.832031 1187.15625 465.796875 Z M 1187.15625 465.796875 " fill-opacity="1" fill-rule="nonzero"/></g></g></g><g clip-path="url(#333ab6ad9e)"><g clip-path="url(#3741b1f08b)"><g clip-path="url(#31cfee0a4f)"><path fill="#ff5757" d="M 1111.164062 491.511719 C 1111.234375 491.527344 1111.296875 491.550781 1111.359375 491.582031 C 1111.492188 491.675781 1111.605469 491.792969 1111.699219 491.925781 C 1111.824219 492.089844 1111.882812 492.277344 1111.871094 492.488281 C 1111.859375 492.695312 1111.78125 492.878906 1111.636719 493.027344 C 1111.5 493.183594 1111.328125 493.277344 1111.125 493.308594 C 1110.921875 493.339844 1110.730469 493.304688 1110.554688 493.199219 C 1110.429688 493.121094 1110.320312 493.023438 1110.226562 492.90625 C 1110.105469 492.769531 1110.035156 492.609375 1110.015625 492.429688 C 1109.992188 492.28125 1110.011719 492.136719 1110.066406 491.992188 C 1110.121094 491.851562 1110.207031 491.734375 1110.328125 491.640625 C 1110.445312 491.546875 1110.578125 491.488281 1110.730469 491.464844 C 1110.878906 491.441406 1111.023438 491.457031 1111.164062 491.511719 Z M 1111.164062 491.511719 " fill-opacity="1" fill-rule="nonzero"/></g></g></g><g transform="matrix(1, 0, 0, 1, 227, 251)"><g clip-path="url(#1d0661c349)"><g fill="#222222" fill-opacity="1"><g transform="translate(2.080399, 185.479847)"><g><path d="M 78.25 3.515625 C 63.863281 3.515625 51.453125 0.597656 41.015625 -5.234375 C 30.585938 -11.066406 22.578125 -19.707031 16.984375 -31.15625 C 11.398438 -42.613281 8.609375 -56.734375 8.609375 -73.515625 C 8.609375 -90.367188 11.398438 -104.503906 16.984375 -115.921875 C 22.578125 -127.347656 30.585938 -135.976562 41.015625 -141.8125 C 51.453125 -147.644531 63.863281 -150.5625 78.25 -150.5625 C 88.988281 -150.5625 98.628906 -148.800781 107.171875 -145.28125 C 115.722656 -141.769531 122.945312 -136.648438 128.84375 -129.921875 C 134.738281 -123.191406 139.109375 -114.976562 141.953125 -105.28125 L 111.671875 -95.9375 C 109.691406 -104.632812 105.832031 -111.265625 100.09375 -115.828125 C 94.351562 -120.398438 87.070312 -122.6875 78.25 -122.6875 C 69.851562 -122.6875 62.875 -120.710938 57.3125 -116.765625 C 51.757812 -112.816406 47.59375 -107.164062 44.8125 -99.8125 C 42.039062 -92.46875 40.65625 -83.703125 40.65625 -73.515625 C 40.65625 -63.335938 42.039062 -54.554688 44.8125 -47.171875 C 47.59375 -39.796875 51.757812 -34.132812 57.3125 -30.1875 C 62.875 -26.238281 69.851562 -24.265625 78.25 -24.265625 C 87.070312 -24.265625 94.351562 -26.5625 100.09375 -31.15625 C 105.832031 -35.757812 109.691406 -42.410156 111.671875 -51.109375 L 141.953125 -41.765625 C 139.109375 -32.128906 134.738281 -23.929688 128.84375 -17.171875 C 122.945312 -10.410156 115.722656 -5.269531 107.171875 -1.75 C 98.628906 1.757812 88.988281 3.515625 78.25 3.515625 Z M 78.25 3.515625 "/></g></g></g><g fill="#222222" fill-opacity="1"><g transform="translate(157.070593, 185.479847)"><g><path d="M 57.046875 -111.203125 C 65.992188 -111.203125 73.769531 -109.8125 80.375 -107.03125 C 86.976562 -104.257812 92.082031 -100.078125 95.6875 -94.484375 C 99.300781 -88.898438 101.109375 -81.941406 101.109375 -73.609375 L 101.109375 0 L 73.609375 0 L 73.609375 -11.296875 C 67.066406 -6.046875 60.957031 -2.460938 55.28125 -0.546875 C 49.601562 1.359375 44.203125 2.3125 39.078125 2.3125 C 32.222656 2.3125 26.265625 1.109375 21.203125 -1.296875 C 16.140625 -3.703125 12.21875 -7.1875 9.4375 -11.75 C 6.664062 -16.320312 5.28125 -21.820312 5.28125 -28.25 C 5.28125 -33.550781 6.234375 -38.191406 8.140625 -42.171875 C 10.054688 -46.160156 12.742188 -49.632812 16.203125 -52.59375 C 19.660156 -55.5625 23.734375 -58.125 28.421875 -60.28125 C 33.117188 -62.4375 38.210938 -64.289062 43.703125 -65.84375 L 73.609375 -74.359375 C 73.367188 -78.742188 71.71875 -82.09375 68.65625 -84.40625 C 65.601562 -86.71875 61.421875 -87.875 56.109375 -87.875 C 51.972656 -87.875 47.757812 -87.222656 43.46875 -85.921875 C 39.1875 -84.628906 35.066406 -82.867188 31.109375 -80.640625 C 27.160156 -78.421875 23.675781 -75.894531 20.65625 -73.0625 L 7.3125 -93.703125 C 14.84375 -99.816406 22.867188 -104.257812 31.390625 -107.03125 C 39.910156 -109.8125 48.460938 -111.203125 57.046875 -111.203125 Z M 48.15625 -19.71875 C 52.46875 -19.71875 56.753906 -20.8125 61.015625 -23 C 65.273438 -25.195312 69.472656 -28.085938 73.609375 -31.671875 L 73.609375 -52.046875 L 51.109375 -44.8125 C 46.046875 -43.207031 42.28125 -41.351562 39.8125 -39.25 C 37.34375 -37.15625 36.109375 -34.289062 36.109375 -30.65625 C 36.109375 -27.257812 37.171875 -24.585938 39.296875 -22.640625 C 41.429688 -20.691406 44.382812 -19.71875 48.15625 -19.71875 Z M 48.15625 -19.71875 "/></g></g></g><g fill="#222222" fill-opacity="1"><g transform="translate(277.339361, 185.479847)"><g><path d="M 13.890625 0 L 13.890625 -109.078125 L 44.625 -109.078125 L 44.625 -96.109375 L 45.75 -96.109375 C 47.78125 -98.828125 50.382812 -101.328125 53.5625 -103.609375 C 56.75 -105.898438 60.484375 -107.738281 64.765625 -109.125 C 69.054688 -110.507812 73.859375 -111.203125 79.171875 -111.203125 C 86.578125 -111.203125 93.070312 -109.628906 98.65625 -106.484375 C 104.25 -103.335938 108.585938 -98.800781 111.671875 -92.875 C 114.753906 -86.945312 116.296875 -79.816406 116.296875 -71.484375 L 116.296875 0 L 85.46875 0 L 85.46875 -63.796875 C 85.46875 -71.765625 83.785156 -77.429688 80.421875 -80.796875 C 77.054688 -84.160156 72.535156 -85.84375 66.859375 -85.84375 C 62.660156 -85.84375 58.925781 -84.929688 55.65625 -83.109375 C 52.382812 -81.285156 49.804688 -78.394531 47.921875 -74.4375 C 46.035156 -70.488281 45.09375 -65.304688 45.09375 -58.890625 L 45.09375 0 Z M 13.890625 0 "/></g></g></g><g fill="#222222" fill-opacity="1"><g transform="translate(412.792965, 185.479847)"><g><path d="M 57.046875 -111.203125 C 65.992188 -111.203125 73.769531 -109.8125 80.375 -107.03125 C 86.976562 -104.257812 92.082031 -100.078125 95.6875 -94.484375 C 99.300781 -88.898438 101.109375 -81.941406 101.109375 -73.609375 L 101.109375 0 L 73.609375 0 L 73.609375 -11.296875 C 67.066406 -6.046875 60.957031 -2.460938 55.28125 -0.546875 C 49.601562 1.359375 44.203125 2.3125 39.078125 2.3125 C 32.222656 2.3125 26.265625 1.109375 21.203125 -1.296875 C 16.140625 -3.703125 12.21875 -7.1875 9.4375 -11.75 C 6.664062 -16.320312 5.28125 -21.820312 5.28125 -28.25 C 5.28125 -33.550781 6.234375 -38.191406 8.140625 -42.171875 C 10.054688 -46.160156 12.742188 -49.632812 16.203125 -52.59375 C 19.660156 -55.5625 23.734375 -58.125 28.421875 -60.28125 C 33.117188 -62.4375 38.210938 -64.289062 43.703125 -65.84375 L 73.609375 -74.359375 C 73.367188 -78.742188 71.71875 -82.09375 68.65625 -84.40625 C 65.601562 -86.71875 61.421875 -87.875 56.109375 -87.875 C 51.972656 -87.875 47.757812 -87.222656 43.46875 -85.921875 C 39.1875 -84.628906 35.066406 -82.867188 31.109375 -80.640625 C 27.160156 -78.421875 23.675781 -75.894531 20.65625 -73.0625 L 7.3125 -93.703125 C 14.84375 -99.816406 22.867188 -104.257812 31.390625 -107.03125 C 39.910156 -109.8125 48.460938 -111.203125 57.046875 -111.203125 Z M 48.15625 -19.71875 C 52.46875 -19.71875 56.753906 -20.8125 61.015625 -23 C 65.273438 -25.195312 69.472656 -28.085938 73.609375 -31.671875 L 73.609375 -52.046875 L 51.109375 -44.8125 C 46.046875 -43.207031 42.28125 -41.351562 39.8125 -39.25 C 37.34375 -37.15625 36.109375 -34.289062 36.109375 -30.65625 C 36.109375 -27.257812 37.171875 -24.585938 39.296875 -22.640625 C 41.429688 -20.691406 44.382812 -19.71875 48.15625 -19.71875 Z M 48.15625 -19.71875 "/></g></g></g><g fill="#222222" fill-opacity="1"><g transform="translate(533.061733, 185.479847)"><g><path d="M 51.296875 2.3125 C 44.378906 2.3125 38.160156 0.957031 32.640625 -1.75 C 27.117188 -4.46875 22.410156 -8.34375 18.515625 -13.375 C 14.628906 -18.40625 11.664062 -24.410156 9.625 -31.390625 C 7.59375 -38.367188 6.578125 -46.085938 6.578125 -54.546875 C 6.578125 -62.992188 7.578125 -70.675781 9.578125 -77.59375 C 11.585938 -84.507812 14.503906 -90.484375 18.328125 -95.515625 C 22.160156 -100.546875 26.804688 -104.414062 32.265625 -107.125 C 37.734375 -109.84375 43.894531 -111.203125 50.75 -111.203125 C 56.113281 -111.203125 60.753906 -110.597656 64.671875 -109.390625 C 68.597656 -108.191406 71.960938 -106.570312 74.765625 -104.53125 C 77.578125 -102.5 80.003906 -100.21875 82.046875 -97.6875 L 82.59375 -97.6875 L 82.59375 -147.046875 L 113.890625 -147.046875 L 113.890625 0 L 83.34375 0 L 83.34375 -11.390625 L 82.6875 -11.390625 C 80.957031 -9.171875 78.71875 -7.007812 75.96875 -4.90625 C 73.226562 -2.8125 69.847656 -1.085938 65.828125 0.265625 C 61.816406 1.628906 56.972656 2.3125 51.296875 2.3125 Z M 61.765625 -22.875 C 66.328125 -22.875 70.304688 -24.125 73.703125 -26.625 C 77.097656 -29.125 79.753906 -32.75 81.671875 -37.5 C 83.585938 -42.25 84.546875 -48.019531 84.546875 -54.8125 C 84.546875 -61.238281 83.585938 -66.765625 81.671875 -71.390625 C 79.753906 -76.023438 77.097656 -79.59375 73.703125 -82.09375 C 70.304688 -84.59375 66.328125 -85.84375 61.765625 -85.84375 C 54.296875 -85.84375 48.492188 -83.25 44.359375 -78.0625 C 40.222656 -72.875 38.15625 -65.125 38.15625 -54.8125 C 38.15625 -43.945312 40.222656 -35.90625 44.359375 -30.6875 C 48.492188 -25.476562 54.296875 -22.875 61.765625 -22.875 Z M 61.765625 -22.875 "/></g></g></g><g fill="#222222" fill-opacity="1"><g transform="translate(668.422747, 185.479847)"><g><path d="M 13.890625 -124.265625 L 13.890625 -147.046875 L 45.09375 -147.046875 L 45.09375 -124.265625 Z M 13.890625 0 L 13.890625 -109.078125 L 45.09375 -109.078125 L 45.09375 0 Z M 13.890625 0 "/></g></g></g><g fill="#222222" fill-opacity="1"><g transform="translate(734.989044, 185.479847)"><g><path d="M 57.046875 -111.203125 C 65.992188 -111.203125 73.769531 -109.8125 80.375 -107.03125 C 86.976562 -104.257812 92.082031 -100.078125 95.6875 -94.484375 C 99.300781 -88.898438 101.109375 -81.941406 101.109375 -73.609375 L 101.109375 0 L 73.609375 0 L 73.609375 -11.296875 C 67.066406 -6.046875 60.957031 -2.460938 55.28125 -0.546875 C 49.601562 1.359375 44.203125 2.3125 39.078125 2.3125 C 32.222656 2.3125 26.265625 1.109375 21.203125 -1.296875 C 16.140625 -3.703125 12.21875 -7.1875 9.4375 -11.75 C 6.664062 -16.320312 5.28125 -21.820312 5.28125 -28.25 C 5.28125 -33.550781 6.234375 -38.191406 8.140625 -42.171875 C 10.054688 -46.160156 12.742188 -49.632812 16.203125 -52.59375 C 19.660156 -55.5625 23.734375 -58.125 28.421875 -60.28125 C 33.117188 -62.4375 38.210938 -64.289062 43.703125 -65.84375 L 73.609375 -74.359375 C 73.367188 -78.742188 71.71875 -82.09375 68.65625 -84.40625 C 65.601562 -86.71875 61.421875 -87.875 56.109375 -87.875 C 51.972656 -87.875 47.757812 -87.222656 43.46875 -85.921875 C 39.1875 -84.628906 35.066406 -82.867188 31.109375 -80.640625 C 27.160156 -78.421875 23.675781 -75.894531 20.65625 -73.0625 L 7.3125 -93.703125 C 14.84375 -99.816406 22.867188 -104.257812 31.390625 -107.03125 C 39.910156 -109.8125 48.460938 -111.203125 57.046875 -111.203125 Z M 48.15625 -19.71875 C 52.46875 -19.71875 56.753906 -20.8125 61.015625 -23 C 65.273438 -25.195312 69.472656 -28.085938 73.609375 -31.671875 L 73.609375 -52.046875 L 51.109375 -44.8125 C 46.046875 -43.207031 42.28125 -41.351562 39.8125 -39.25 C 37.34375 -37.15625 36.109375 -34.289062 36.109375 -30.65625 C 36.109375 -27.257812 37.171875 -24.585938 39.296875 -22.640625 C 41.429688 -20.691406 44.382812 -19.71875 48.15625 -19.71875 Z M 48.15625 -19.71875 "/></g></g></g><g fill="#222222" fill-opacity="1"><g transform="translate(855.257855, 185.479847)"><g><path d="M 13.890625 0 L 13.890625 -109.078125 L 44.625 -109.078125 L 44.625 -96.109375 L 45.75 -96.109375 C 47.78125 -98.828125 50.382812 -101.328125 53.5625 -103.609375 C 56.75 -105.898438 60.484375 -107.738281 64.765625 -109.125 C 69.054688 -110.507812 73.859375 -111.203125 79.171875 -111.203125 C 86.578125 -111.203125 93.070312 -109.628906 98.65625 -106.484375 C 104.25 -103.335938 108.585938 -98.800781 111.671875 -92.875 C 114.753906 -86.945312 116.296875 -79.816406 116.296875 -71.484375 L 116.296875 0 L 85.46875 0 L 85.46875 -63.796875 C 85.46875 -71.765625 83.785156 -77.429688 80.421875 -80.796875 C 77.054688 -84.160156 72.535156 -85.84375 66.859375 -85.84375 C 62.660156 -85.84375 58.925781 -84.929688 55.65625 -83.109375 C 52.382812 -81.285156 49.804688 -78.394531 47.921875 -74.4375 C 46.035156 -70.488281 45.09375 -65.304688 45.09375 -58.890625 L 45.09375 0 Z M 13.890625 0 "/></g></g></g></g></g></svg>